<svg version="1.1" id="_x32_" xmlns="http://www.w3.org/2000/svg" xmlns:xlink="http://www.w3.org/1999/xlink" viewBox="-51.2 -51.2 614.40 614.40" xml:space="preserve" fill="#ffffff"><g id="SVGRepo_bgCarrier" stroke-width="0"><rect x="-51.2" y="-51.2" width="614.40" height="614.40" rx="0" fill="#00009c" strokewidth="0"></rect></g><g id="SVGRepo_tracerCarrier" stroke-linecap="round" stroke-linejoin="round"></g><g id="SVGRepo_iconCarrier"> <style type="text/css">  .st0{fill:#e50914;}  </style> <g> <path class="st0" d="M0,48v416h512V48H0z M228,88h56v32h-56V88z M92,424H36v-32h56V424z M92,120H36V88h56V120z M188,424h-56v-32h56 V424z M188,120h-56V88h56V120z M284,424h-56v-32h56V424z M311.188,257.859l-92.156,55.016c-0.672,0.391-1.5,0.406-2.172,0.016 s-1.094-1.094-1.094-1.891v-55v-55c0-0.781,0.422-1.5,1.094-1.875c0.672-0.391,1.5-0.375,2.172,0.016l92.156,55.016 c0.656,0.375,1.047,1.094,1.047,1.844C312.234,256.766,311.844,257.469,311.188,257.859z M380,424h-56v-32h56V424z M380,120h-56V88 h56V120z M476,424h-56v-32h56V424z M476,120h-56V88h56V120z"></path> </g> </g></svg>